<svg id="Layer_1" data-name="Layer 1" xmlns="http://www.w3.org/2000/svg" viewBox="0 0 300 300"><title>Nybble-Logo-300x300</title><polygon points="130.14 186.04 110.4 151.66 130.14 117.29 169.88 117.29 189.61 151.66 169.88 186.04 130.14 186.04" style="fill:none"/><path d="M134.82,125.68H165.2l14.92,26L165.2,177.71H134.82L119.9,151.66l14.92-26m-9.36-16.78-24.55,42.76,24.55,42.83h49.1l24.55-42.76L174.56,108.9Z" transform="translate(0 0)" style="fill:#0067ee"/><polygon points="131.79 67.36 113.71 35.85 131.79 4.33 168.22 4.33 186.31 35.85 168.22 67.36 131.79 67.36" style="fill:none"/><path d="M136.08,15.39H163.9l13.68,23.82L163.9,63H136.08L122.4,39.21l13.68-23.82M127.51,0,105,39.21l22.51,39.21h45L195,39.21,172.51,0Z" transform="translate(0 0)" style="fill:#0067ee"/><path d="M36.79,78.18,54.15,55.86l26.7,3.87,9.6,25.82L73.09,107.87,46.41,104,36.79,78.18M19.7,75.46l15.86,42.48,43.91,6.41,28.07-36.08L91.7,45.79,47.77,39.38Z" transform="translate(0 0)" style="fill:#0067ee"/><path d="M22.72,196.93l-6.19-27.85,19.64-19,25.68,8.39L68,186.35l-19.64,19L22.7,196.93M10,208.93l42.28,13.8,32.29-31.22-10-45-42.28-13.8L0,163.93Z" transform="translate(0 0)" style="fill:#0067ee"/><path d="M104.48,282.28,79.39,269.87l-2.24-27.54L99.57,227l25.07,12.4,2.24,27.56-22.4,15.36M105.69,300l36.87-25.29-3.66-45.32L98.34,209.28l-36.85,25.3,3.66,45.31Z" transform="translate(0 0)" style="fill:#0067ee"/><path d="M220.51,270l-25.1,12.39L173,267l2.26-27.54,25.1-12.37,22.39,15.37L220.51,270m14.22,10.07,3.72-45.31-36.84-25.33-40.55,20-3.72,45.31L194.2,300Z" transform="translate(0 0)" style="fill:#0067ee"/><path d="M283.47,169.32l-6.22,27.83-25.69,8.39-19.64-19,6.22-27.85,25.69-8.39,19.64,19M300,164.18l-32.16-31.33-42.29,13.74-10.08,45,32.24,31.26L290,209.08Z" transform="translate(0 0)" style="fill:#0067ee"/><path d="M246,56,263.31,78.3l-9.66,25.81L226.93,108l-17.3-22.34,9.64-25.82L246,56m6.4-16.47-43.93,6.35L192.56,88.32l28,36.1,44-6.34L280.46,75.6Z" transform="translate(0 0)" style="fill:#0067ee"/></svg>