<?xml version="1.0" encoding="utf-8"?>
<!-- Generator: Adobe Illustrator 24.1.0, SVG Export Plug-In . SVG Version: 6.00 Build 0)  -->
<svg version="1.1" id="Layer_1" xmlns="http://www.w3.org/2000/svg" xmlns:xlink="http://www.w3.org/1999/xlink" x="0px" y="0px"
	 viewBox="0 0 774.8 210.6" style="enable-background:new 0 0 774.8 210.6;" xml:space="preserve">
<style type="text/css">
	.st0{fill:#FFFFFF;}
	.st1{enable-background:new    ;}
</style>
<path class="st0" d="M97,88.3h21.9l10.7,18.3l-10.7,18.3H97l-10.7-18.3L97,88.3 M90.3,76.5l-17.7,30l17.7,30h35.4l17.7-30l-17.7-30
	H90.3z"/>
<path class="st0" d="M97.9,10.8h20l9.9,16.7L118,44.3h-20L88,27.6L97.9,10.8 M91.8,0L75.5,27.6l16.3,27.6h32.4l16.1-27.6L124.2,0
	H91.8z"/>
<path class="st0" d="M26.4,54.9l12.5-15.7L58.2,42l7,18.1L52.6,75.8l-19.2-2.7L26.4,54.9 M14.1,53l11.4,29.8l31.6,4.5L77.4,62
	L66,32.2l-31.6-4.5L14.1,53z"/>
<path class="st0" d="M16.3,138.3l-4.5-19.6l14.1-13.3l18.5,5.9l4.5,19.6l-14.1,13.3L16.3,138.3 M7.2,146.7l30.4,9.7l23.2-21.9
	l-7.2-31.6l-30.4-9.7L0,115.1L7.2,146.7z"/>
<path class="st0" d="M75.2,198.2l-18-8.7l-1.6-19.3l16.1-10.8l18,8.7l1.6,19.3L75.2,198.2 M76,210.6l26.5-17.8L99.9,161l-29.2-14.1
	l-26.5,17.8l2.6,31.8L76,210.6z"/>
<path class="st0" d="M158.7,189.6l-18,8.7l-16.1-10.8l1.6-19.3l18-8.7l16.1,10.8L158.7,189.6 M169,196.7l2.7-31.8l-26.5-17.8
	l-29.2,14l-2.7,31.8l26.5,17.7L169,196.7z"/>
<path class="st0" d="M204.1,118.9l-4.5,19.6l-18.5,5.9L167,131l4.5-19.6l18.5-5.9L204.1,118.9 M216,115.4l-23.2-22l-30.4,9.7
	l-7.3,31.6l23.2,21.9l30.4-9.7L216,115.4z"/>
<path class="st0" d="M177,39.4L189.5,55l-7,18.1l-19.2,2.7l-12.5-15.7l7-18.1L177,39.4 M181.7,27.8l-31.6,4.5l-11.4,29.8l20.2,25.3
	l31.7-4.5L202,53.1L181.7,27.8z"/>
<g class="st1">
	<path class="st0" d="M234.8,54.4h21.8l32.5,54.5V54.4h24.5v103h-21.6l-32.6-54.3v54.3h-24.6V54.4L234.8,54.4z"/>
	<path class="st0" d="M364.5,122.7l-32.6-68.3h25.9L377,95.6c4.3-9.1,9.7-21.9,19.3-41.2h25.4l-32.5,68.3v34.7h-24.6L364.5,122.7
		L364.5,122.7z"/>
	<path class="st0" d="M437.4,54.4h36.4c28.6,0,35.5,17.1,35.5,30.9c0,5.9-1.7,12.1-6,17.6c8.5,6,12.2,15.5,12.2,23.3
		c0,14-5.5,31.2-41.6,31.2h-36.4v-103C437.5,54.4,437.4,54.4,437.4,54.4z M462,95.1h10.1c10.6,0,12.5-5.9,12.5-9.7
		c0-4-0.9-10.2-11-10.2h-11.7L462,95.1L462,95.1z M462,136.7h11.5c15.1-0.3,17.2-4.8,17.2-10.5c0-5.6-3.4-10.6-18.6-10.6H462V136.7z
		"/>
	<path class="st0" d="M533.8,54.4h36.4c28.6,0,35.5,17.1,35.5,30.9c0,5.9-1.7,12.1-6,17.6c8.5,6,12.2,15.5,12.2,23.3
		c0,14-5.5,31.2-41.6,31.2h-36.5V54.4L533.8,54.4z M558.3,95.1h10.1c10.6,0,12.5-5.9,12.5-9.7c0-4-0.9-10.2-11-10.2h-11.7
		L558.3,95.1L558.3,95.1z M563.8,136.7h9.3c12.3-0.3,14-4.8,14-10.5c0-5.6-2.8-10.6-15.1-10.6h-8.2V136.7L563.8,136.7z"/>
	<path class="st0" d="M630.2,54.4h24.5v81.9h36.6v21.2h-61.1V54.4z"/>
	<path class="st0" d="M711.5,54.4h62.2v20.7h-37.6v21.5h31.4v20.7h-31.4v19.3h38.7v20.7h-63.3V54.4L711.5,54.4z"/>
</g>
</svg>
