<?xml version="1.0" encoding="utf-8"?>
<!-- Generator: Adobe Illustrator 24.1.0, SVG Export Plug-In . SVG Version: 6.00 Build 0)  -->
<svg version="1.1" id="Layer_1" xmlns="http://www.w3.org/2000/svg" xmlns:xlink="http://www.w3.org/1999/xlink" x="0px" y="0px"
	 viewBox="0 0 767.3 201" style="enable-background:new 0 0 767.3 201;" xml:space="preserve">
<style type="text/css">
	.st0{fill:#FFFFFF;}
	.st1{fill:#0067EE;}
	.st2{enable-background:new    ;}
</style>
<circle class="st0" cx="100.5" cy="100.5" r="100"/>
<path class="st1" d="M91.2,86h18.6l9.1,15.5l-9.1,15.5H91.2l-9.1-15.5L91.2,86 M85.5,76l-15,25.5l15,25.5h30l15-25.5l-15-25.5H85.5z
	"/>
<path class="st1" d="M92,20.3h17l8.4,14.2L109,48.7H92l-8.4-14.2L92,20.3 M86.8,11.1L73,34.5l13.8,23.4h27.5L128,34.5l-13.7-23.4
	H86.8z"/>
<path class="st1" d="M31.3,57.7l10.6-13.3l16.4,2.3l5.9,15.4L53.5,75.4l-16.3-2.3L31.3,57.7 M20.9,56.1l9.7,25.3l26.8,3.8l17.2-21.5
	l-9.7-25.3l-26.8-3.8L20.9,56.1z"/>
<path class="st1" d="M22.7,128.5l-3.8-16.6l12-11.3l15.7,5l3.8,16.6l-12,11.3L22.7,128.5 M15,135.6l25.8,8.2l19.7-18.6l-6.1-26.8
	l-25.8-8.2L8.9,108.8L15,135.6z"/>
<path class="st1" d="M72.7,179.3l-15.3-7.4L56,155.5l13.7-9.2l15.3,7.4l1.4,16.4L72.7,179.3 M73.4,189.8l22.5-15.1l-2.2-27l-24.8-12
	l-22.5,15.1l2.2,27L73.4,189.8z"/>
<path class="st1" d="M143.6,172l-15.3,7.4l-13.7-9.2l1.4-16.4l15.3-7.4l13.7,9.2L143.6,172 M152.3,178l2.3-27l-22.5-15.1l-24.8,11.9
	l-2.3,27l22.5,15L152.3,178z"/>
<path class="st1" d="M182.1,112l-3.8,16.6l-15.7,5l-12-11.3l3.8-16.6l15.7-5L182.1,112 M192.2,109l-19.7-18.7l-25.8,8.2l-6.2,26.8
	l19.7,18.6l25.8-8.2L192.2,109z"/>
<path class="st1" d="M159.1,44.5l10.6,13.3l-5.9,15.4l-16.3,2.3l-10.6-13.3l5.9-15.4L159.1,44.5 M163.1,34.7l-26.8,3.8l-9.7,25.3
	l17.1,21.5l26.9-3.8l9.7-25.3L163.1,34.7z"/>
<g class="st2">
	<path class="st0" d="M227.3,49.6h21.8l32.5,54.5V49.6h24.5v103h-21.6l-32.6-54.3v54.3h-24.6V49.6L227.3,49.6z"/>
	<path class="st0" d="M357,117.9l-32.6-68.3h25.9l19.2,41.2c4.3-9.1,9.7-21.9,19.3-41.2h25.4l-32.5,68.3v34.7h-24.6L357,117.9
		L357,117.9z"/>
	<path class="st0" d="M429.9,49.6h36.4c28.6,0,35.5,17.1,35.5,30.9c0,5.9-1.7,12.1-6,17.6c8.5,6,12.2,15.5,12.2,23.3
		c0,14-5.5,31.2-41.6,31.2H430v-103C430,49.6,429.9,49.6,429.9,49.6z M454.5,90.3h10.1c10.6,0,12.5-5.9,12.5-9.7
		c0-4-0.9-10.2-11-10.2h-11.7L454.5,90.3L454.5,90.3z M454.5,131.9H466c15.1-0.3,17.2-4.8,17.2-10.5c0-5.6-3.4-10.6-18.6-10.6h-10.1
		V131.9z"/>
	<path class="st0" d="M526.3,49.6h36.4c28.6,0,35.5,17.1,35.5,30.9c0,5.9-1.7,12.1-6,17.6c8.5,6,12.2,15.5,12.2,23.3
		c0,14-5.5,31.2-41.6,31.2h-36.5V49.6L526.3,49.6z M550.9,90.3H561c10.6,0,12.5-5.9,12.5-9.7c0-4-0.9-10.2-11-10.2h-11.7L550.9,90.3
		L550.9,90.3z M556.3,131.9h9.3c12.3-0.3,14-4.8,14-10.5c0-5.6-2.8-10.6-15.1-10.6h-8.2V131.9L556.3,131.9z"/>
	<path class="st0" d="M622.7,49.6h24.5v81.9h36.6v21.2h-61.1V49.6z"/>
	<path class="st0" d="M704,49.6h62.2v20.7h-37.6v21.5H760v20.7h-31.4v19.3h38.7v20.7H704V49.6L704,49.6z"/>
</g>
</svg>
