<?xml version="1.0" encoding="utf-8"?>
<!-- Generator: Adobe Illustrator 24.1.0, SVG Export Plug-In . SVG Version: 6.00 Build 0)  -->
<svg version="1.1" id="Layer_1" xmlns="http://www.w3.org/2000/svg" xmlns:xlink="http://www.w3.org/1999/xlink" x="0px" y="0px"
	 viewBox="0 0 810 180" style="enable-background:new 0 0 810 180;" xml:space="preserve">
<style type="text/css">
	.st0{fill:#0067EE;}
	.st1{enable-background:new    ;}
	.st2{fill:#FFFFFF;}
	.st3{fill:none;}
</style>
<path class="st0" d="M83.9,75.5h18.6l9.1,15.5l-9.1,15.5H83.9L74.8,91L83.9,75.5 M78.2,65.5L63.2,91l15,25.5h30l15-25.5l-15-25.5
	H78.2z"/>
<path class="st0" d="M84.7,9.8h17l8.4,14.2l-8.4,14.2h-17L76.3,24L84.7,9.8 M79.5,0.6L65.7,24l13.8,23.4H107L120.7,24L107,0.6H79.5z
	"/>
<path class="st0" d="M24,47.2l10.6-13.3L51,36.2l5.9,15.4L46.2,64.9l-16.3-2.3L24,47.2 M13.6,45.6l9.7,25.3l26.8,3.8l17.2-21.5
	l-9.7-25.3l-26.8-3.8L13.6,45.6z"/>
<path class="st0" d="M15.4,118l-3.8-16.6l12-11.3l15.7,5l3.8,16.6l-12,11.3L15.4,118 M7.7,125.1l25.8,8.2l19.7-18.6l-6.1-26.8
	l-25.8-8.2L1.6,98.3L7.7,125.1z"/>
<path class="st0" d="M65.4,168.8l-15.3-7.4L48.7,145l13.7-9.2l15.3,7.4l1.4,16.4L65.4,168.8 M66.1,179.3l22.5-15.1l-2.2-27l-24.8-12
	l-22.5,15.1l2.2,27L66.1,179.3z"/>
<path class="st0" d="M136.3,161.5l-15.3,7.4l-13.7-9.2l1.4-16.4l15.3-7.4l13.7,9.2L136.3,161.5 M145,167.5l2.3-27l-22.5-15.1
	L100,137.3l-2.3,27l22.5,15L145,167.5z"/>
<path class="st0" d="M174.8,101.5l-3.8,16.6l-15.7,5l-12-11.3l3.8-16.6l15.7-5L174.8,101.5 M184.9,98.5l-19.7-18.7L139.4,88
	l-6.2,26.8l19.7,18.6l25.8-8.2L184.9,98.5z"/>
<path class="st0" d="M151.8,34l10.6,13.3l-5.9,15.4L140.2,65l-10.6-13.3l5.9-15.4L151.8,34 M155.8,24.2L129,28l-9.7,25.3l17.1,21.5
	l26.9-3.8l9.7-25.3L155.8,24.2z"/>
<g class="st1">
	<path class="st2" d="M220,39.1h21.8l32.5,54.5V39.1h24.5v103h-21.6l-32.6-54.3v54.3H220V39.1L220,39.1z"/>
	<path class="st2" d="M349.7,107.4l-32.6-68.3H343l19.2,41.2c4.3-9.1,9.7-21.9,19.3-41.2h25.4l-32.5,68.3v34.7h-24.6L349.7,107.4
		L349.7,107.4z"/>
	<path class="st3" d="M422.6,39.1H459c28.6,0,35.5,17.1,35.5,30.9c0,5.9-1.7,12.1-6,17.6c8.5,6,12.2,15.5,12.2,23.3
		c0,14-5.5,31.2-41.6,31.2h-36.4v-103H422.6z M447.2,79.8h10.1c10.6,0,12.5-5.9,12.5-9.7c0-4-0.9-10.2-11-10.2h-11.7L447.2,79.8
		L447.2,79.8z M447.2,121.4h11.5c15.1-0.3,17.2-4.8,17.2-10.5c0-5.6-3.4-10.6-18.6-10.6h-10.1V121.4z"/>
	<path class="st2" d="M519,39.1h36.4c28.6,0,35.5,17.1,35.5,30.9c0,5.9-1.7,12.1-6,17.6c8.5,6,12.2,15.5,12.2,23.3
		c0,14-5.5,31.2-41.6,31.2H519V39.1L519,39.1z M543.6,79.8h10.1c10.6,0,12.5-5.9,12.5-9.7c0-4-0.9-10.2-11-10.2h-11.7L543.6,79.8
		L543.6,79.8z M543.6,121.4h11.5c15.1-0.3,17.2-4.8,17.2-10.5c0-5.6-3.4-10.6-18.6-10.6h-10.1L543.6,121.4L543.6,121.4z"/>
	<path class="st2" d="M615.4,39.1h24.5V121h36.6v21.2h-61.1V39.1z"/>
	<path class="st2" d="M696.7,39.1h62.2v20.7h-37.6v21.5h31.4V102h-31.4v19.3H760V142h-63.3V39.1L696.7,39.1z"/>
</g>
</svg>
