<?xml version="1.0" encoding="utf-8"?>
<!-- Generator: Adobe Illustrator 24.1.0, SVG Export Plug-In . SVG Version: 6.00 Build 0)  -->
<svg version="1.1" id="Layer_1" xmlns="http://www.w3.org/2000/svg" xmlns:xlink="http://www.w3.org/1999/xlink" x="0px" y="0px"
	 viewBox="0 0 864.8 292.5" style="enable-background:new 0 0 864.8 292.5;" xml:space="preserve">
<style type="text/css">
	.st0{fill:#FFFFFF;}
	.st1{enable-background:new    ;}
</style>
<path class="st0" d="M134.7,122.6h30.4L180,148l-14.9,25.4h-30.4L119.8,148L134.7,122.6 M125.4,106.2L100.8,148l24.5,41.7h49.1
	L199,148l-24.5-41.7H125.4z"/>
<path class="st0" d="M136,15.1h27.8l13.7,23.2l-13.7,23.2H136l-13.7-23.2L136,15.1 M127.5,0l-22.6,38.3l22.6,38.3h45l22.4-38.3
	L172.5,0H127.5z"/>
<path class="st0" d="M36.7,76.3L54,54.5l26.8,3.8l9.7,25.2L73,105.2l-26.7-3.8L36.7,76.3 M19.6,73.6l15.9,41.4l43.9,6.2l28.2-35.2
	L91.7,44.7l-43.9-6.2L19.6,73.6z"/>
<path class="st0" d="M22.6,192.1L16.4,165L36,146.5l25.7,8.2l6.2,27.2l-19.6,18.5L22.6,192.1 M10,203.8l42.2,13.4l32.2-30.4
	l-10-43.9l-42.2-13.4L0,159.9L10,203.8z"/>
<path class="st0" d="M104.4,275.3l-25-12.1l-2.3-26.8l22.4-15.1l25,12.1l2.3,26.8L104.4,275.3 M105.6,292.5l36.8-24.7l-3.6-44.2
	l-40.6-19.6l-36.8,24.7l3.6,44.2L105.6,292.5z"/>
<path class="st0" d="M220.5,263.3l-25,12.1L173,260.4l2.3-26.8l25-12.1l22.4,15.1L220.5,263.3 M234.7,273.2l3.8-44.2l-36.8-24.7
	L161,223.7l-3.8,44.2l36.8,24.5L234.7,273.2z"/>
<path class="st0" d="M283.5,165.1l-6.2,27.2l-25.7,8.2L231.9,182l6.2-27.2l25.7-8.2L283.5,165.1 M300,160.2l-32.2-30.6L225.5,143
	l-10.1,43.9l32.2,30.4l42.2-13.4L300,160.2z"/>
<path class="st0" d="M245.8,54.7l17.3,21.8l-9.7,25.2l-26.7,3.8l-17.3-21.8l9.7-25.2L245.8,54.7 M252.4,38.6l-43.9,6.2l-15.9,41.4
	l28,35.2l44-6.2l15.9-41.4L252.4,38.6z"/>
<g class="st1">
	<path class="st0" d="M324.8,95.4h21.8l32.5,54.5V95.4h24.5v103h-21.6l-32.6-54.3v54.3h-24.6V95.4L324.8,95.4z"/>
	<path class="st0" d="M454.5,163.7l-32.6-68.3h25.9l19.2,41.2c4.3-9.1,9.7-21.9,19.3-41.2h25.4l-32.5,68.3v34.7h-24.6L454.5,163.7
		L454.5,163.7z"/>
	<path class="st0" d="M527.4,95.4h36.4c28.6,0,35.5,17.1,35.5,30.9c0,5.9-1.7,12.1-6,17.6c8.5,6,12.2,15.5,12.2,23.3
		c0,14-5.5,31.2-41.6,31.2h-36.4L527.4,95.4C527.5,95.4,527.4,95.4,527.4,95.4z M552,136.1h10.1c10.6,0,12.5-5.9,12.5-9.7
		c0-4-0.9-10.2-11-10.2h-11.7L552,136.1L552,136.1z M552,177.7h11.5c15.1-0.3,17.2-4.8,17.2-10.5c0-5.6-3.4-10.6-18.6-10.6H552
		V177.7z"/>
	<path class="st0" d="M623.8,95.4h36.4c28.6,0,35.5,17.1,35.5,30.9c0,5.9-1.7,12.1-6,17.6c8.5,6,12.2,15.5,12.2,23.3
		c0,14-5.5,31.2-41.6,31.2h-36.5V95.4L623.8,95.4z M648.3,136.1h10.1c10.6,0,12.5-5.9,12.5-9.7c0-4-0.9-10.2-11-10.2h-11.7
		L648.3,136.1L648.3,136.1z M653.8,177.7h9.3c12.3-0.3,14-4.8,14-10.5c0-5.6-2.8-10.6-15.1-10.6h-8.2V177.7L653.8,177.7z"/>
	<path class="st0" d="M720.2,95.4h24.5v81.9h36.6v21.2h-61.1V95.4z"/>
	<path class="st0" d="M801.5,95.4h62.2v20.7h-37.6v21.5h31.4v20.7h-31.4v19.3h38.7v20.7h-63.3V95.4L801.5,95.4z"/>
</g>
</svg>
