<?xml version="1.0" encoding="utf-8"?>
<!-- Generator: Adobe Illustrator 24.1.0, SVG Export Plug-In . SVG Version: 6.00 Build 0)  -->
<svg version="1.1" id="Layer_1" xmlns="http://www.w3.org/2000/svg" xmlns:xlink="http://www.w3.org/1999/xlink" x="0px" y="0px"
	 viewBox="0 0 347.2 347.2" style="enable-background:new 0 0 347.2 347.2;" xml:space="preserve">
<style type="text/css">
	.st0{fill:#FFFFFF;}
	.st1{fill:#0067EE;}
</style>
<circle class="st0" cx="173.6" cy="173.6" r="173.6"/>
<path class="st1" d="M158.4,149.3h30.4l14.9,26l-14.9,26h-30.4l-14.9-26.1L158.4,149.3 M149,132.5l-24.5,42.8l24.5,42.8h49.1
	l24.6-42.8l-24.6-42.8L149,132.5z"/>
<path class="st1" d="M159.7,39h27.8l13.7,23.8l-13.7,23.8h-27.8L146,62.8L159.7,39 M151.1,23.6l-22.5,39.2l22.5,39.2h45l22.5-39.2
	l-22.5-39.2H151.1z"/>
<path class="st1" d="M60.4,101.8l17.4-22.3l26.7,3.9l9.6,25.8l-17.4,22.3L70,127.6L60.4,101.8 M43.3,99.1l15.9,42.5l43.9,6.4
	l28.1-36.1l-15.8-42.5L71.4,63L43.3,99.1z"/>
<path class="st1" d="M46.3,220.5l-6.2-27.9l19.6-19l25.7,8.4l6.2,27.9l-19.6,19L46.3,220.5 M33.6,232.5l42.3,13.8l32.3-31.2l-10-45
	l-42.3-13.8l-32.3,31.2L33.6,232.5z"/>
<path class="st1" d="M128.1,305.9L103,293.5l-2.2-27.5l22.4-15.3l25.1,12.4l2.2,27.6L128.1,305.9 M129.3,323.6l36.9-25.3l-3.7-45.3
	l-40.6-20.1l-36.8,25.3l3.7,45.3L129.3,323.6z"/>
<path class="st1" d="M244.1,293.6L219,306l-22.4-15.4l2.3-27.5l25.1-12.4l22.4,15.4L244.1,293.6 M258.3,303.7l3.7-45.3L225.2,233
	l-40.6,20l-3.7,45.3l36.9,25.3L258.3,303.7z"/>
<path class="st1" d="M307.1,192.9l-6.2,27.8l-25.7,8.4l-19.6-19l6.2-27.9l25.7-8.4L307.1,192.9 M323.6,187.8l-32.2-31.3l-42.3,13.7
	l-10.1,45l32.2,31.3l42.3-13.8L323.6,187.8z"/>
<path class="st1" d="M269.6,79.6l17.3,22.3l-9.7,25.8l-26.7,3.9l-17.3-22.3l9.6-25.8L269.6,79.6 M276,63.1l-43.9,6.3l-15.9,42.4
	l28,36.1l44-6.3L304,99.2L276,63.1z"/>
</svg>
